<?xml version="1.0" standalone="no"?>
<!DOCTYPE svg PUBLIC "-//W3C//DTD SVG 1.1//EN" "http://www.w3.org/Graphics/SVG/1.1/DTD/svg11.dtd">
<!--Generator: Xara Designer (www.xara.com), SVG filter version: 6,5,0,13-->
<svg fill="none" fill-rule="evenodd" stroke="black" stroke-linejoin="bevel" stroke-miterlimit="10" font-family="Times New Roman" font-size="16" style="font-variant-ligatures:none" xmlns:xlink="http://www.w3.org/1999/xlink" xmlns="http://www.w3.org/2000/svg" version="1.1" overflow="visible" width="631.081pt" height="145.742pt" viewBox="69.835 -1468.74 631.081 145.742">
 <defs>
  <style type="text/css">@import url('https://themes.googleusercontent.com/fonts/css?family=Open Sans:400,600');</style>
 </defs>
 <g id="Page background" transform="scale(1 -1)" stroke-width="0.501"/>
 <g id="MouseOff" transform="scale(1 -1)" stroke-width="0.501">
  <path d="M 89.552,1328.49 C 83.59,1332.15 78.813,1337.06 75.222,1343.23 C 71.631,1349.39 69.835,1356.27 69.835,1363.86 L 69.835,1428.29 C 69.835,1432.28 70.369,1436.11 71.439,1439.76 L 99.081,1439.76 C 99.055,1439.73 99.029,1439.7 99.004,1439.67 C 95.955,1436.42 94.431,1432.63 94.431,1428.29 L 94.431,1363.86 C 94.431,1359.38 95.921,1355.56 98.902,1352.37 C 101.884,1349.19 105.407,1347.6 109.472,1347.6 C 113.809,1347.6 117.434,1349.15 120.347,1352.27 C 123.261,1355.39 124.717,1359.25 124.717,1363.86 L 124.717,1373.82 L 110.489,1373.82 C 109.811,1373.82 109.472,1374.15 109.472,1374.83 L 109.472,1397.6 C 109.472,1398.28 109.811,1398.62 110.489,1398.62 L 148.5,1398.62 C 148.658,1398.62 148.794,1398.59 148.906,1398.53 L 137.38,1334.67 L 137.374,1334.63 C 135.055,1332.3 132.462,1330.25 129.596,1328.49 C 123.633,1324.83 116.925,1323 109.472,1323 C 102.155,1323 95.515,1324.83 89.552,1328.49 Z M 124.717,1418.94 L 124.717,1426.67 C 124.717,1431.82 123.261,1436.08 120.347,1439.47 C 120.263,1439.57 120.179,1439.66 120.095,1439.76 L 147.82,1439.76 C 148.815,1436.14 149.313,1432.32 149.313,1428.29 L 149.313,1418.94 C 149.313,1418.4 148.974,1418.13 148.296,1418.13 L 125.53,1418.13 C 124.988,1418.13 124.717,1418.4 124.717,1418.94 Z M 73.336,1444.82 C 73.268,1444.67 73.203,1444.54 73.139,1444.4 L 73.137,1444.4 C 73.202,1444.54 73.269,1444.68 73.336,1444.82 Z M 107.637,1444.41 C 107.569,1444.41 107.503,1444.41 107.435,1444.4 L 107.43,1444.4 C 107.524,1444.41 107.6,1444.42 107.637,1444.41 Z M 111.443,1444.41 C 111.484,1444.42 111.563,1444.41 111.659,1444.4 L 111.656,1444.4 C 111.584,1444.4 111.514,1444.41 111.443,1444.41 Z M 146.293,1444.2 C 146.172,1444.49 146.047,1444.77 145.917,1445.05 C 146.045,1444.78 146.17,1444.5 146.293,1444.2 C 146.265,1444.27 146.238,1444.33 146.211,1444.4 C 146.238,1444.33 146.265,1444.27 146.293,1444.2 Z M 73.936,1446.11 C 74.218,1446.7 74.523,1447.28 74.846,1447.86 C 74.97,1448.08 75.094,1448.3 75.222,1448.52 C 75.094,1448.3 74.968,1448.08 74.846,1447.86 C 74.545,1447.32 74.249,1446.75 73.936,1446.11 C 73.864,1445.96 73.795,1445.82 73.728,1445.67 C 73.798,1445.82 73.868,1445.97 73.936,1446.11 Z M 145.337,1446.32 C 144.962,1447.11 144.612,1447.79 144.312,1448.32 C 144.177,1448.56 144.103,1448.69 144.028,1448.82 C 144.103,1448.69 144.177,1448.56 144.312,1448.32 C 144.639,1447.74 145.004,1447.04 145.337,1446.32 C 145.407,1446.18 145.477,1446.03 145.549,1445.87 C 145.48,1446.02 145.411,1446.17 145.337,1446.32 Z M 109.472,1468.74 C 109.023,1468.74 108.576,1468.73 108.132,1468.72 C 108.576,1468.73 109.023,1468.74 109.472,1468.74 Z M 109.472,1468.74 C 109.937,1468.74 110.4,1468.73 110.861,1468.72 C 110.4,1468.73 109.937,1468.74 109.472,1468.74 Z" fill="#ffffff" stroke-linecap="round" stroke="none" stroke-width="5.212" fill-rule="nonzero" stroke-linejoin="round" marker-start="none" marker-end="none"/>
  <path d="M 234.978,1326.05 L 234.978,1439.76 L 259.373,1439.76 L 259.573,1326.05 C 259.573,1325.37 259.302,1325.03 258.76,1325.03 L 235.791,1325.03 C 235.249,1325.03 234.978,1325.37 234.978,1326.05 Z M 285.795,1466.51 C 286.472,1466.51 286.811,1466.24 286.811,1465.69 C 286.811,1466.24 286.472,1466.51 285.795,1466.51 Z" fill="#ffffff" stroke-linecap="round" stroke="none" stroke-width="5.212" fill-rule="nonzero" stroke-linejoin="round" marker-start="none" marker-end="none"/>
  <path d="M 294.502,1326.05 L 294.666,1439.76 L 319.097,1439.76 L 319.097,1410.2 L 356.836,1410.2 L 361.056,1385.63 L 361.06,1385.61 C 361.031,1385.61 361.001,1385.61 360.97,1385.61 L 319.097,1385.61 L 319.097,1350.03 L 360.97,1350.03 C 361.512,1350.03 361.783,1349.69 361.783,1349.02 L 361.783,1325.85 C 361.783,1325.3 361.512,1325.03 360.97,1325.03 L 295.315,1325.03 C 294.773,1325.03 294.502,1325.37 294.502,1326.05 Z M 350.961,1444.4 L 347.305,1465.69 L 350.961,1444.4 Z M 295.518,1466.51 C 294.976,1466.51 294.705,1466.24 294.705,1465.69 C 294.705,1466.24 294.976,1466.51 295.518,1466.51 Z" fill="#ffffff" stroke-linecap="round" stroke="none" stroke-width="5.212" fill-rule="nonzero" stroke-linejoin="round" marker-start="none" marker-end="none"/>
  <path d="M 379.541,1326.05 L 360.009,1439.76 L 383.619,1439.76 L 392.956,1373.82 L 402.584,1439.76 L 430.631,1439.76 L 440.114,1373.82 L 449.596,1439.76 L 473.226,1439.76 L 453.53,1326.05 C 453.394,1325.78 453.191,1325.54 452.92,1325.34 C 452.649,1325.13 452.514,1325.03 452.514,1325.03 L 427.918,1325.03 C 427.512,1325.03 427.173,1325.37 426.902,1326.05 L 416.535,1399.02 L 406.169,1326.05 C 406.033,1325.37 405.694,1325.03 405.152,1325.03 L 380.557,1325.03 C 380.015,1325.03 379.676,1325.37 379.541,1326.05 Z M 382.961,1444.4 L 379.947,1465.69 L 382.961,1444.4 Z M 474.029,1444.4 L 477.719,1465.69 L 474.029,1444.4 Z M 356.165,1466.51 C 355.623,1466.51 355.42,1466.24 355.555,1465.69 C 355.42,1466.24 355.623,1466.51 356.165,1466.51 Z M 407.592,1466.51 C 406.914,1466.51 406.507,1466.24 406.372,1465.69 C 406.507,1466.24 406.914,1466.51 407.592,1466.51 Z M 425.886,1466.51 C 426.428,1466.51 426.766,1466.24 426.902,1465.69 C 426.766,1466.24 426.428,1466.51 425.886,1466.51 Z M 454.343,1466.51 C 453.801,1466.51 453.462,1466.24 453.327,1465.69 C 453.462,1466.24 453.801,1466.51 454.343,1466.51 Z M 378.931,1466.51 C 378.998,1466.51 379.063,1466.5 379.124,1466.49 C 379.063,1466.5 378.998,1466.51 378.931,1466.51 Z M 476.906,1466.51 C 476.99,1466.51 477.068,1466.5 477.14,1466.49 C 477.068,1466.5 476.99,1466.51 476.906,1466.51 Z" fill="#ffffff" stroke-linecap="round" stroke="none" stroke-width="5.212" fill-rule="nonzero" stroke-linejoin="round" marker-start="none" marker-end="none"/>
  <path d="M 552.701,1325.03 L 548.229,1349.28 L 595.593,1439.76 L 622.928,1439.76 L 575.311,1348.81 L 624.298,1348.81 C 624.84,1348.81 625.111,1348.48 625.111,1347.8 L 625.314,1326.05 C 625.314,1325.37 624.975,1325.03 624.298,1325.03 L 552.701,1325.03 Z M 550.309,1466.51 C 549.767,1466.51 549.496,1466.17 549.496,1465.49 C 549.496,1466.17 549.767,1466.51 550.309,1466.51 Z M 623.891,1466.51 C 624.569,1466.51 624.908,1466.17 624.908,1465.49 C 624.908,1466.17 624.569,1466.51 623.891,1466.51 Z" fill="#ffffff" stroke-linecap="round" stroke="none" stroke-width="5.212" fill-rule="nonzero" stroke-linejoin="round" marker-start="none" marker-end="none"/>
  <path d="M 462.243,1326.05 L 482.767,1439.76 L 523.447,1439.76 L 543.144,1326.05 C 543.279,1325.37 543.008,1325.03 542.331,1325.03 L 519.768,1325.03 C 519.226,1325.03 518.887,1325.37 518.752,1326.05 L 516.516,1340.89 L 488.871,1340.89 L 486.635,1326.05 C 486.5,1325.37 486.161,1325.03 485.619,1325.03 L 463.057,1325.03 C 462.514,1325.03 462.243,1325.37 462.243,1326.05 Z M 512.45,1362.64 L 504.116,1419.76 L 502.897,1427.28 L 502.084,1419.76 L 492.937,1362.64 L 512.45,1362.64 Z M 522.643,1444.4 L 518.955,1465.69 L 522.643,1444.4 Z M 488.465,1466.51 C 487.923,1466.51 487.584,1466.24 487.449,1465.69 C 487.584,1466.24 487.923,1466.51 488.465,1466.51 Z M 517.939,1466.51 C 518.006,1466.51 518.071,1466.5 518.132,1466.49 C 518.071,1466.5 518.006,1466.51 517.939,1466.51 Z" fill="#ffffff" stroke-linecap="round" stroke="none" stroke-width="5.212" fill-rule="nonzero" stroke-linejoin="round" marker-start="none" marker-end="none"/>
  <path d="M 633.635,1326.05 L 633.799,1439.76 L 658.23,1439.76 L 658.23,1410.2 L 699.9,1410.2 C 700.442,1410.2 700.713,1409.93 700.713,1409.39 L 700.916,1386.42 C 700.916,1385.88 700.645,1385.61 700.103,1385.61 L 658.23,1385.61 L 658.23,1350.03 L 700.103,1350.03 C 700.645,1350.03 700.916,1349.69 700.916,1349.02 L 700.916,1325.85 C 700.916,1325.3 700.645,1325.03 700.103,1325.03 L 634.448,1325.03 C 633.906,1325.03 633.635,1325.37 633.635,1326.05 Z M 699.9,1466.51 C 700.442,1466.51 700.713,1466.17 700.713,1465.49 C 700.713,1466.17 700.442,1466.51 699.9,1466.51 Z M 634.651,1466.51 C 634.109,1466.51 633.838,1466.24 633.838,1465.69 C 633.838,1466.24 634.109,1466.51 634.651,1466.51 Z" fill="#ffffff" stroke-linecap="round" stroke="none" stroke-width="5.212" fill-rule="nonzero" stroke-linejoin="round" marker-start="none" marker-end="none"/>
  <path d="M 144.214,1326.05 L 164.738,1439.76 L 205.418,1439.76 L 225.115,1326.05 C 225.25,1325.37 224.979,1325.03 224.302,1325.03 L 201.739,1325.03 C 201.197,1325.03 200.858,1325.37 200.723,1326.05 L 198.487,1340.89 L 170.842,1340.89 L 168.606,1326.05 C 168.471,1325.37 168.132,1325.03 167.59,1325.03 L 145.028,1325.03 C 144.485,1325.03 144.214,1325.37 144.214,1326.05 Z M 194.421,1362.64 L 186.087,1419.76 L 184.868,1427.28 L 184.055,1419.76 L 174.908,1362.64 L 194.421,1362.64 Z M 204.614,1444.4 L 200.926,1465.69 L 204.614,1444.4 Z M 170.436,1466.51 C 169.894,1466.51 169.555,1466.24 169.42,1465.69 C 169.555,1466.24 169.894,1466.51 170.436,1466.51 Z M 199.91,1466.51 C 199.977,1466.51 200.042,1466.5 200.103,1466.49 C 200.042,1466.5 199.977,1466.51 199.91,1466.51 Z" fill="#ffffff" stroke-linecap="round" stroke="none" stroke-width="5.212" fill-rule="nonzero" stroke-linejoin="round" marker-start="none" marker-end="none"/>
  <path d="M 75.222,1448.52 C 78.813,1454.68 83.624,1459.6 89.654,1463.25 C 95.684,1466.91 102.29,1468.74 109.472,1468.74 C 116.925,1468.74 123.667,1466.95 129.697,1463.36 C 135.728,1459.76 140.504,1454.92 144.028,1448.82 C 144.856,1447.39 145.587,1445.91 146.22,1444.4 L 111.689,1444.4 C 110.972,1444.5 110.233,1444.55 109.472,1444.55 C 108.767,1444.55 108.077,1444.5 107.401,1444.4 L 73.126,1444.4 C 73.739,1445.8 74.438,1447.17 75.222,1448.52 Z M 165.575,1444.4 L 169.42,1465.69 C 169.555,1466.24 169.894,1466.51 170.436,1466.51 L 199.91,1466.51 C 200.452,1466.51 200.79,1466.24 200.926,1465.69 L 204.614,1444.4 L 165.575,1444.4 Z M 213.337,1444.4 L 209.66,1465.63 C 209.524,1466.17 209.186,1466.44 208.644,1466.44 L 208.164,1466.44 C 208.273,1466.49 208.402,1466.51 208.553,1466.51 L 285.795,1466.51 C 286.472,1466.51 286.811,1466.24 286.811,1465.69 L 286.811,1444.4 L 213.337,1444.4 Z M 294.673,1444.4 L 294.705,1465.69 C 294.705,1466.24 294.976,1466.51 295.518,1466.51 L 347.915,1466.51 C 347.373,1466.51 347.17,1466.24 347.305,1465.69 L 350.961,1444.4 L 294.673,1444.4 Z M 359.212,1444.4 L 355.555,1465.69 C 355.42,1466.24 355.623,1466.51 356.165,1466.51 L 378.931,1466.51 C 379.473,1466.51 379.812,1466.24 379.947,1465.69 L 382.961,1444.4 L 359.212,1444.4 Z M 403.261,1444.4 L 406.372,1465.69 C 406.507,1466.24 406.914,1466.51 407.592,1466.51 L 425.886,1466.51 C 426.428,1466.51 426.766,1466.24 426.902,1465.69 L 429.964,1444.4 L 403.261,1444.4 Z M 450.263,1444.4 L 453.327,1465.69 C 453.462,1466.24 453.801,1466.51 454.343,1466.51 L 476.906,1466.51 C 477.583,1466.51 477.854,1466.24 477.719,1465.69 L 474.029,1444.4 L 450.263,1444.4 Z M 483.604,1444.4 L 487.449,1465.69 C 487.584,1466.24 487.923,1466.51 488.465,1466.51 L 517.939,1466.51 C 518.481,1466.51 518.819,1466.24 518.955,1465.69 L 522.643,1444.4 L 483.604,1444.4 Z M 549.496,1444.4 L 549.496,1465.49 C 549.496,1466.17 549.767,1466.51 550.309,1466.51 L 623.891,1466.51 C 624.569,1466.51 624.908,1466.17 624.908,1465.49 L 624.908,1444.4 L 549.496,1444.4 Z M 633.806,1444.4 L 633.838,1465.69 C 633.838,1466.24 634.109,1466.51 634.651,1466.51 L 699.9,1466.51 C 700.442,1466.51 700.713,1466.17 700.713,1465.49 L 700.713,1444.4 L 633.806,1444.4 Z" stroke-linecap="round" stroke="none" stroke-width="5.212" fill="#00a2c7" stroke-linejoin="miter" marker-start="none" marker-end="none"/>
 </g>
</svg>
